<?xml version="1.0"?>
<!DOCTYPE svg PUBLIC "-//W3C//DTD SVG 1.1//EN" "http://www.w3.org/Graphics/SVG/1.1/DTD/svg11.dtd">
<svg width="373.0589241820006mm" height="127.90725153762085mm" viewBox="0 0 373.0589241820006 127.90725153762085" xmlns="http://www.w3.org/2000/svg" version="1.1">
<g id="Sketch007022024007008105133" transform="translate(186.560181,48.256256) scale(1,-1)">
<path id="Sketch007022024007008105133_w0000"  d="M -10.786218 -40.323215 L -40.55907496949608 -75.8086424762441 L -42.67240466670251 -75.99355478756597 L -61.9393819543589 -59.82565339764461 L -76.9275267378884 -52.83718674280167 L -95.4606481757894 -49.56929739655327 L -121.74969257410922 -34.10125847648965 L -132.40016848961773 -32.22329221519982 L -132.63589589080058 -33.56016873991388 L -134.37357978681928 -34.77690810293179 L -163.91781237718553 -29.56746277292389 L -165.13455174020345 -27.829778876905188 L -164.40262467133738 -23.678814197958737 L -181.68600073670157 -20.631288679904102 L -182.9027400997195 -18.8936047838854 L -174.3852969851566 29.411215501363394 L -172.6476130891379 30.627954864381316 L -155.36423702377368 27.580429346326703 L -153.30911084108553 39.235629103226195 L -151.57142694506683 40.45236846624409 L -134.28805087970255 37.404842948189476 L -134.0523234785197 38.74171947290356 L -132.314639582501 39.958458835921455 L -115.03126351713678 36.91093331786684 L -114.1339365590429 41.999927381557434 L -112.39625266302417 43.216666744575356 L -95.11287659765995 40.16914122652073 L -94.54634941802158 43.382076520723054 L -92.80866552200285 44.59881588374096 L -63.264432931636634 39.389370553733066 L -62.047693568618705 37.65168665771436 L -62.118021080573804 37.25283951774441 L -44.834645015209546 34.2053139996898 L -43.61790565219163 32.46763010367108 L -43.78747309768338 31.50596533285468 L -30.792067048504947 29.214524621122514 L -12.271631362311975 19.445317426120845 L 12.210194478559846 19.445317426120667 L 30.73063016475276 29.214524621122344 L 43.72603621393124 31.505965332854494 L 43.55646876843949 32.467630103670935 L 44.77320813145741 34.20531399968963 L 62.05658419682164 37.252839517744256 L 61.986256684866525 37.6516866577142 L 63.20299604788444 39.38937055373291 L 92.74722863825068 44.598815883740805 L 94.4849125342694 43.38207652072288 L 95.05143971390774 40.1691412265206 L 112.33481577927196 43.21666674457523 L 114.07249967529069 41.99992738155732 L 114.96982663338457 36.91093331786673 L 132.25320269874882 39.95845883592134 L 133.99088659476752 38.74171947290345 L 134.22661399595037 37.40484294818936 L 151.5099900613146 40.45236846624399 L 153.24767395733332 39.23562910322607 L 155.30280014002147 27.580429346326575 L 172.58617620538567 30.627954864381245 L 174.32386010140436 29.411215501363323 L 182.84130321596737 -18.893604783885472 L 181.62456385294945 -20.631288679904188 L 164.34118778758526 -23.678814197958985 L 165.07311485645138 -27.82977887690528 L 163.85637549343346 -29.56746277292399 L 134.31214290306715 -34.776908102931905 L 132.57445900704846 -33.560168739914 L 132.3387316058656 -32.22329221519993 L 121.68825569035707 -34.10125847648978 L 95.39921129203731 -49.56929739655341 L 76.86608985413628 -52.837186742801826 L 61.87794507060678 -59.8256533976448 L 42.61096778295041 -75.99355478756615 L 40.49763808574398 -75.8086424762443 L 10.724781 -40.323215 L -10.786218 -40.323215 " stroke="#000000" stroke-width="0.35 px" style="stroke-width:0.35;stroke-miterlimit:4;stroke-dasharray:none;fill:none;fill-opacity:1;fill-rule: evenodd"/>
<circle cx="179.62640769043034" cy="-17.937337687367965" r="1.0" stroke="#000000" stroke-width="0.35 px" style="stroke-width:0.35;stroke-miterlimit:4;stroke-dasharray:none;fill:none"/>
<circle cx="26.977728470169627" cy="-55.02720192321733" r="1.0" stroke="#000000" stroke-width="0.35 px" style="stroke-width:0.35;stroke-miterlimit:4;stroke-dasharray:none;fill:none"/>
<circle cx="175.62815839964924" cy="4.737860825738128" r="1.0" stroke="#000000" stroke-width="0.35 px" style="stroke-width:0.35;stroke-miterlimit:4;stroke-dasharray:none;fill:none"/>
<circle cx="-171.69134599262037" cy="27.41305933884429" r="1.0" stroke="#000000" stroke-width="0.35 px" style="stroke-width:0.35;stroke-miterlimit:4;stroke-dasharray:none;fill:none"/>
<circle cx="-150.6151598485493" cy="37.23747294070708" r="1.0" stroke="#000000" stroke-width="0.35 px" style="stroke-width:0.35;stroke-miterlimit:4;stroke-dasharray:none;fill:none"/>
<circle cx="-175.68959528340145" cy="4.737860825738206" r="1.0" stroke="#000000" stroke-width="0.35 px" style="stroke-width:0.35;stroke-miterlimit:4;stroke-dasharray:none;fill:none"/>
<circle cx="-179.6878445741825" cy="-17.937337687367876" r="1.0" stroke="#000000" stroke-width="0.35 px" style="stroke-width:0.35;stroke-miterlimit:4;stroke-dasharray:none;fill:none"/>
<circle cx="-161.91965621466645" cy="-26.873511780387663" r="1.0" stroke="#000000" stroke-width="0.35 px" style="stroke-width:0.35;stroke-miterlimit:4;stroke-dasharray:none;fill:none"/>
<circle cx="-135.32984688333678" cy="-31.56201257739478" r="1.0" stroke="#000000" stroke-width="0.35 px" style="stroke-width:0.35;stroke-miterlimit:4;stroke-dasharray:none;fill:none"/>
<circle cx="-94.40620631621849" cy="-46.70894411032679" r="1.0" stroke="#000000" stroke-width="0.35 px" style="stroke-width:0.35;stroke-miterlimit:4;stroke-dasharray:none;fill:none"/>
<circle cx="-120.69525071453829" cy="-31.240905190263177" r="1.0" stroke="#000000" stroke-width="0.35 px" style="stroke-width:0.35;stroke-miterlimit:4;stroke-dasharray:none;fill:none"/>
<circle cx="-41.89310099275748" cy="-72.73118742876774" r="1.0" stroke="#000000" stroke-width="0.35 px" style="stroke-width:0.35;stroke-miterlimit:4;stroke-dasharray:none;fill:none"/>
<circle cx="-12.185229715086036" cy="-37.323216417666565" r="1.0" stroke="#000000" stroke-width="0.35 px" style="stroke-width:0.35;stroke-miterlimit:4;stroke-dasharray:none;fill:none"/>
<circle cx="-68.16562414952868" cy="-53.612485242354225" r="1.0" stroke="#000000" stroke-width="0.35 px" style="stroke-width:0.35;stroke-miterlimit:4;stroke-dasharray:none;fill:none"/>
<circle cx="-27.03916535392176" cy="-55.02720192321716" r="1.0" stroke="#000000" stroke-width="0.35 px" style="stroke-width:0.35;stroke-miterlimit:4;stroke-dasharray:none;fill:none"/>
<circle cx="-131.35837248598347" cy="36.743563310384445" r="1.0" stroke="#000000" stroke-width="0.35 px" style="stroke-width:0.35;stroke-miterlimit:4;stroke-dasharray:none;fill:none"/>
<circle cx="-111.43998556650665" cy="40.00177121903833" r="1.0" stroke="#000000" stroke-width="0.35 px" style="stroke-width:0.35;stroke-miterlimit:4;stroke-dasharray:none;fill:none"/>
<circle cx="-91.85239842548535" cy="41.38392035820395" r="1.0" stroke="#000000" stroke-width="0.35 px" style="stroke-width:0.35;stroke-miterlimit:4;stroke-dasharray:none;fill:none"/>
<circle cx="-65.26258909415573" cy="36.69541956119684" r="1.0" stroke="#000000" stroke-width="0.35 px" style="stroke-width:0.35;stroke-miterlimit:4;stroke-dasharray:none;fill:none"/>
<circle cx="-46.832801177728655" cy="31.51136300715356" r="1.0" stroke="#000000" stroke-width="0.35 px" style="stroke-width:0.35;stroke-miterlimit:4;stroke-dasharray:none;fill:none"/>
<circle cx="-31.775948941814146" cy="26.341729709086227" r="1.0" stroke="#000000" stroke-width="0.35 px" style="stroke-width:0.35;stroke-miterlimit:4;stroke-dasharray:none;fill:none"/>
<circle cx="-13.014358205517063" cy="16.445317426120848" r="1.0" stroke="#000000" stroke-width="0.35 px" style="stroke-width:0.35;stroke-miterlimit:4;stroke-dasharray:none;fill:none"/>
<circle cx="12.123792831333887" cy="-37.32321641766674" r="1.0" stroke="#000000" stroke-width="0.35 px" style="stroke-width:0.35;stroke-miterlimit:4;stroke-dasharray:none;fill:none"/>
<circle cx="12.952921321764912" cy="16.44531742612067" r="1.0" stroke="#000000" stroke-width="0.35 px" style="stroke-width:0.35;stroke-miterlimit:4;stroke-dasharray:none;fill:none"/>
<circle cx="41.831664109005374" cy="-72.73118742876792" r="1.0" stroke="#000000" stroke-width="0.35 px" style="stroke-width:0.35;stroke-miterlimit:4;stroke-dasharray:none;fill:none"/>
<circle cx="31.714512058061985" cy="26.34172970908605" r="1.0" stroke="#000000" stroke-width="0.35 px" style="stroke-width:0.35;stroke-miterlimit:4;stroke-dasharray:none;fill:none"/>
<circle cx="46.77136429397651" cy="31.51136300715341" r="1.0" stroke="#000000" stroke-width="0.35 px" style="stroke-width:0.35;stroke-miterlimit:4;stroke-dasharray:none;fill:none"/>
<circle cx="65.20115221040355" cy="36.69541956119667" r="1.0" stroke="#000000" stroke-width="0.35 px" style="stroke-width:0.35;stroke-miterlimit:4;stroke-dasharray:none;fill:none"/>
<circle cx="68.10418726577659" cy="-53.61248524235438" r="1.0" stroke="#000000" stroke-width="0.35 px" style="stroke-width:0.35;stroke-miterlimit:4;stroke-dasharray:none;fill:none"/>
<circle cx="94.34476943246639" cy="-46.70894411032694" r="1.0" stroke="#000000" stroke-width="0.35 px" style="stroke-width:0.35;stroke-miterlimit:4;stroke-dasharray:none;fill:none"/>
<circle cx="120.63381383078615" cy="-31.240905190263312" r="1.0" stroke="#000000" stroke-width="0.35 px" style="stroke-width:0.35;stroke-miterlimit:4;stroke-dasharray:none;fill:none"/>
<circle cx="135.2684099995847" cy="-31.56201257739489" r="1.0" stroke="#000000" stroke-width="0.35 px" style="stroke-width:0.35;stroke-miterlimit:4;stroke-dasharray:none;fill:none"/>
<circle cx="161.85821933091432" cy="-26.87351178038776" r="1.0" stroke="#000000" stroke-width="0.35 px" style="stroke-width:0.35;stroke-miterlimit:4;stroke-dasharray:none;fill:none"/>
<circle cx="91.79096154173315" cy="41.383920358203795" r="1.0" stroke="#000000" stroke-width="0.35 px" style="stroke-width:0.35;stroke-miterlimit:4;stroke-dasharray:none;fill:none"/>
<circle cx="111.37854868275447" cy="40.00177121903822" r="1.0" stroke="#000000" stroke-width="0.35 px" style="stroke-width:0.35;stroke-miterlimit:4;stroke-dasharray:none;fill:none"/>
<circle cx="131.2969356022313" cy="36.743563310384346" r="1.0" stroke="#000000" stroke-width="0.35 px" style="stroke-width:0.35;stroke-miterlimit:4;stroke-dasharray:none;fill:none"/>
<circle cx="150.55372296479712" cy="37.23747294070698" r="1.0" stroke="#000000" stroke-width="0.35 px" style="stroke-width:0.35;stroke-miterlimit:4;stroke-dasharray:none;fill:none"/>
<circle cx="171.6299091088682" cy="27.413059338844203" r="1.0" stroke="#000000" stroke-width="0.35 px" style="stroke-width:0.35;stroke-miterlimit:4;stroke-dasharray:none;fill:none"/>
<title>b'sketch'</title>
</g>
</svg>