<?xml version="1.0"?>
<!DOCTYPE svg PUBLIC "-//W3C//DTD SVG 1.1//EN" "http://www.w3.org/Graphics/SVG/1.1/DTD/svg11.dtd">
<svg width="373.0589241820006mm" height="127.90725153762085mm" viewBox="0 0 373.0589241820006 127.90725153762085" xmlns="http://www.w3.org/2000/svg" version="1.1">
<g id="Sketch007022024007008105133" transform="translate(186.560181,48.256256) scale(1,-1)">
<path id="Sketch007022024007008105133_w0000"  d="M 10.724780746614393 -40.323216417666735 L -10.78621763036655 -40.32321641766657 L -40.55907496949608 -75.8086424762441 L -42.67240466670251 -75.99355478756597 L -61.9393819543589 -59.82565339764461 L -76.9275267378884 -52.83718674280167 L -95.4606481757894 -49.56929739655327 L -121.74969257410922 -34.10125847648965 L -132.40016848961773 -32.22329221519982 L -132.63589589080058 -33.56016873991388 L -134.37357978681928 -34.77690810293179 L -163.91781237718553 -29.56746277292389 L -165.13455174020345 -27.829778876905188 L -164.40262467133738 -23.678814197958737 L -181.68600073670157 -20.631288679904102 L -182.9027400997195 -18.8936047838854 L -174.3852969851566 29.411215501363394 L -172.6476130891379 30.627954864381316 L -155.36423702377368 27.580429346326703 L -153.30911084108553 39.235629103226195 L -151.57142694506683 40.45236846624409 L -134.28805087970255 37.404842948189476 L -134.0523234785197 38.74171947290356 L -132.314639582501 39.958458835921455 L -115.03126351713678 36.91093331786684 L -114.1339365590429 41.999927381557434 L -112.39625266302417 43.216666744575356 L -95.11287659765995 40.16914122652073 L -94.54634941802158 43.382076520723054 L -92.80866552200285 44.59881588374096 L -63.264432931636634 39.389370553733066 L -62.047693568618705 37.65168665771436 L -62.118021080573804 37.25283951774441 L -44.834645015209546 34.2053139996898 L -43.61790565219163 32.46763010367108 L -43.78747309768338 31.50596533285468 L -30.792067048504947 29.214524621122514 L -12.271631362311975 19.445317426120845 L 12.210194478559846 19.445317426120667 L 30.73063016475276 29.214524621122344 L 43.72603621393124 31.505965332854494 L 43.55646876843949 32.467630103670935 L 44.77320813145741 34.20531399968963 L 62.05658419682164 37.252839517744256 L 61.986256684866525 37.6516866577142 L 63.20299604788444 39.38937055373291 L 92.74722863825068 44.598815883740805 L 94.4849125342694 43.38207652072288 L 95.05143971390774 40.1691412265206 L 112.33481577927196 43.21666674457523 L 114.07249967529069 41.99992738155732 L 114.96982663338457 36.91093331786673 L 132.25320269874882 39.95845883592134 L 133.99088659476752 38.74171947290345 L 134.22661399595037 37.40484294818936 L 151.5099900613146 40.45236846624399 L 153.24767395733332 39.23562910322607 L 155.30280014002147 27.580429346326575 L 172.58617620538567 30.627954864381245 L 174.32386010140436 29.411215501363323 L 182.84130321596737 -18.893604783885472 L 181.62456385294945 -20.631288679904188 L 164.34118778758526 -23.678814197958985 L 165.07311485645138 -27.82977887690528 L 163.85637549343346 -29.56746277292399 L 134.31214290306715 -34.776908102931905 L 132.57445900704846 -33.560168739914 L 132.3387316058656 -32.22329221519993 L 121.68825569035707 -34.10125847648978 L 95.39921129203731 -49.56929739655341 L 76.86608985413628 -52.837186742801826 L 61.87794507060678 -59.8256533976448 L 42.61096778295041 -75.99355478756615 L 40.49763808574398 -75.8086424762443 L 10.724780746614393 -40.323216417666735 " stroke="#000000" stroke-width="0.35 px" style="stroke-width:0.35;stroke-miterlimit:4;stroke-dasharray:none;fill:none;fill-opacity:1;fill-rule: evenodd"/>
<path id="Sketch007022024007008105133_w0001"  d="M -13.584241799805522 -34.32321641766654 L 13.522804916053378 -34.32321641766675 L 42.20148873279972 -68.50452802120493 L 58.626325619633214 -54.72161131522023 L 75.04638851872998 -47.065489513750705 L 93.29032757289546 -43.848590824100455 L 119.57937197121522 -28.38055190403683 L 137.20568905793724 -25.272556631125102 L 137.7018887256205 -28.08664478535747 L 158.38285153887693 -24.44003305435193 L 157.3904522035104 -18.811856745887162 L 176.15103989839295 -15.503858961332128 L 169.19643038283238 23.93769154680679 L 150.43584268794984 20.629693762251744 L 148.1202442387613 33.76210514866955 L 129.3596565438787 30.454107364114517 L 128.86345687619547 33.268195518346914 L 110.10286918131291 29.96019773379187 L 108.94506995671864 36.5264034270008 L 90.18448226183608 33.218405642445774 L 89.35748281569734 37.90855256616638 L 68.67652000244097 34.26194083516084 L 69.00731978089647 32.38588206567259 L 50.24673208601389 29.07788428111756 L 50.67677179800604 26.639007880782824 L 32.698393951371166 23.46893479704975 L 13.695648164969956 13.445317426120663 L -13.757085048722121 13.445317426120859 L -32.759830835123346 23.468934797049933 L -50.738208681758216 26.63900788078301 L -50.30816896976606 29.077884281117726 L -69.06875666464863 32.385882065672746 L -68.73795688619313 34.261940835161 L -89.4189196994495 37.908552566166534 L -90.24591914558826 33.21840564244591 L -109.00650684047083 36.52640342700093 L -110.16430606506508 29.960197733792022 L -128.92489375994762 33.268195518347035 L -129.42109342763086 30.45410736411465 L -148.18168112251348 33.76210514866967 L -150.497279571702 20.629693762251858 L -169.25786726658453 23.937691546806874 L -176.21247678214507 -15.503858961332043 L -157.45188908726251 -18.811856745887056 L -158.44428842262903 -24.44003305435183 L -137.76332560937263 -28.086644785357365 L -137.2671259416894 -25.272556631124992 L -119.64080885496736 -28.3805519040367 L -93.35176445664757 -43.84859082410031 L -75.10782540248209 -47.06548951375055 L -58.687762503385315 -54.72161131522006 L -42.262925616551826 -68.50452802120475 L -13.584241799805522 -34.32321641766654 " stroke="#000000" stroke-width="0.35 px" style="stroke-width:0.35;stroke-miterlimit:4;stroke-dasharray:none;fill:none;fill-opacity:1;fill-rule: evenodd"/>
<circle cx="179.62640769043034" cy="-17.937337687367965" r="1.0" stroke="#000000" stroke-width="0.35 px" style="stroke-width:0.35;stroke-miterlimit:4;stroke-dasharray:none;fill:none"/>
<path id="Sketch007022024007008105133_w0003"  d="M 88.45709491281978 19.97982417778503 A 0.5 0.5 0 0 1 88.8627 20.5591L 86.60524839082231 33.36155293228333 A 0.5 0.5 0 0 1 86.026 33.7671L 73.22351963632404 31.509706410285855 A 0.5 0.5 0 0 1 72.8179 30.9305L 75.0753661583215 18.127977655787564 A 0.5 0.5 0 0 1 75.6546 17.7224L 88.45709491281978 19.97982417778503 " stroke="#000000" stroke-width="0.35 px" style="stroke-width:0.35;stroke-miterlimit:4;stroke-dasharray:none;fill:none;fill-opacity:1;fill-rule: evenodd"/>
<path id="Sketch007022024007008105133_w0004"  d="M 70.02730699639271 14.795767623741748 A 0.5 0.5 0 0 1 70.4329 15.375L 68.17546047439525 28.17749637824002 A 0.5 0.5 0 0 1 67.5962 28.5831L 54.79373171989697 26.325649856242546 A 0.5 0.5 0 0 1 54.3882 25.7464L 56.64557824189444 12.943921101744278 A 0.5 0.5 0 0 1 57.2248 12.5383L 70.02730699639271 14.795767623741748 " stroke="#000000" stroke-width="0.35 px" style="stroke-width:0.35;stroke-miterlimit:4;stroke-dasharray:none;fill:none;fill-opacity:1;fill-rule: evenodd"/>
<path id="Sketch007022024007008105133_w0005"  d="M 51.69675901350231 9.048893438851978 A 0.5 0.5 0 0 1 52.1023 9.62812L 49.84491249150484 22.43062219335025 A 0.5 0.5 0 0 1 49.2657 22.8362L 36.46318373700659 20.57877567135279 A 0.5 0.5 0 0 1 36.0576 19.9995L 38.31503025900405 7.197046916854523 A 0.5 0.5 0 0 1 38.8943 6.79147L 51.69675901350231 9.048893438851978 " stroke="#000000" stroke-width="0.35 px" style="stroke-width:0.35;stroke-miterlimit:4;stroke-dasharray:none;fill:none;fill-opacity:1;fill-rule: evenodd"/>
<path id="Sketch007022024007008105133_w0006"  d="M 108.0446820538411 18.597675038619432 A 0.5 0.5 0 0 1 108.45 19.1769L 106.19283553184364 31.979403793117694 A 0.5 0.5 0 0 1 105.614 32.385L 92.81110677734537 30.12755727112022 A 0.5 0.5 0 0 1 92.4055 29.5483L 94.66295329934283 16.745828516621952 A 0.5 0.5 0 0 1 95.2422 16.3402L 108.0446820538411 18.597675038619432 " stroke="#000000" stroke-width="0.35 px" style="stroke-width:0.35;stroke-miterlimit:4;stroke-dasharray:none;fill:none;fill-opacity:1;fill-rule: evenodd"/>
<path id="Sketch007022024007008105133_w0007"  d="M 127.9630689733179 15.339467129965536 A 0.5 0.5 0 0 1 128.369 15.9187L 126.11122245132046 28.721195884463828 A 0.5 0.5 0 0 1 125.532 29.1268L 112.7294936968222 26.869349362466355 A 0.5 0.5 0 0 1 112.324 26.2901L 114.58134021881966 13.48762060796811 A 0.5 0.5 0 0 1 115.161 13.082L 127.9630689733179 15.339467129965536 " stroke="#000000" stroke-width="0.35 px" style="stroke-width:0.35;stroke-miterlimit:4;stroke-dasharray:none;fill:none;fill-opacity:1;fill-rule: evenodd"/>
<path id="Sketch007022024007008105133_w0008"  d="M 147.21985633588375 15.833376760288207 A 0.5 0.5 0 0 1 147.625 16.4126L 145.3680098138863 29.21510551478647 A 0.5 0.5 0 0 1 144.789 29.6207L 131.986281059388 27.363258992788996 A 0.5 0.5 0 0 1 131.581 26.784L 133.83812758138546 13.981530238290743 A 0.5 0.5 0 0 1 134.417 13.576L 147.21985633588375 15.833376760288207 " stroke="#000000" stroke-width="0.35 px" style="stroke-width:0.35;stroke-miterlimit:4;stroke-dasharray:none;fill:none;fill-opacity:1;fill-rule: evenodd"/>
<path id="Sketch007022024007008105133_w0009"  d="M 91.7650926973748 1.2192364829024613 A 0.5 0.5 0 0 1 92.1707 1.79846L 89.91324617537734 14.600965237400738 A 0.5 0.5 0 0 1 89.334 15.0065L 76.53151742087907 12.749118715403283 A 0.5 0.5 0 0 1 76.1259 12.1699L 78.38336394287654 -0.6326100390949972 A 0.5 0.5 0 0 1 78.9626 -1.03819L 91.7650926973748 1.2192364829024613 " stroke="#000000" stroke-width="0.35 px" style="stroke-width:0.35;stroke-miterlimit:4;stroke-dasharray:none;fill:none;fill-opacity:1;fill-rule: evenodd"/>
<path id="Sketch007022024007008105133_w0010"  d="M 73.33530478094775 -3.9648200711408115 A 0.5 0.5 0 0 1 73.7409 -3.38559L 71.48345825895028 9.41690868335745 A 0.5 0.5 0 0 1 70.9042 9.82249L 58.10172950445201 7.565062161359994 A 0.5 0.5 0 0 1 57.6961 6.98583L 59.95357602644947 -5.816666593138281 A 0.5 0.5 0 0 1 60.5328 -6.22225L 73.33530478094775 -3.9648200711408115 " stroke="#000000" stroke-width="0.35 px" style="stroke-width:0.35;stroke-miterlimit:4;stroke-dasharray:none;fill:none;fill-opacity:1;fill-rule: evenodd"/>
<path id="Sketch007022024007008105133_w0011"  d="M 55.004756798057336 -9.711694256030576 A 0.5 0.5 0 0 1 55.4103 -9.13247L 53.15291027605987 3.670034498467702 A 0.5 0.5 0 0 1 52.5737 4.07561L 39.771181521561616 1.8181879764702393 A 0.5 0.5 0 0 1 39.3656 1.23896L 41.62302804355908 -11.563540778028036 A 0.5 0.5 0 0 1 42.2023 -11.9691L 55.004756798057336 -9.711694256030576 " stroke="#000000" stroke-width="0.35 px" style="stroke-width:0.35;stroke-miterlimit:4;stroke-dasharray:none;fill:none;fill-opacity:1;fill-rule: evenodd"/>
<path id="Sketch007022024007008105133_w0012"  d="M 111.35267983839614 -0.16291265626313975 A 0.5 0.5 0 0 1 111.758 0.416315L 109.50083331639867 13.218816098235132 A 0.5 0.5 0 0 1 108.922 13.6244L 96.11910456190039 11.366969576237677 A 0.5 0.5 0 0 1 95.7135 10.7877L 97.97095108389786 -2.014759178260606 A 0.5 0.5 0 0 1 98.5502 -2.42034L 111.35267983839614 -0.16291265626313975 " stroke="#000000" stroke-width="0.35 px" style="stroke-width:0.35;stroke-miterlimit:4;stroke-dasharray:none;fill:none;fill-opacity:1;fill-rule: evenodd"/>
<path id="Sketch007022024007008105133_w0013"  d="M 168.29604247995482 6.008963158425419 A 0.5 0.5 0 0 1 168.702 6.58819L 166.44419595795736 19.39069191292371 A 0.5 0.5 0 0 1 165.865 19.7963L 153.06246720345908 17.538845390926237 A 0.5 0.5 0 0 1 152.657 16.9596L 154.91431372545654 4.15711663642797 A 0.5 0.5 0 0 1 155.494 3.75154L 168.29604247995482 6.008963158425419 " stroke="#000000" stroke-width="0.35 px" style="stroke-width:0.35;stroke-miterlimit:4;stroke-dasharray:none;fill:none;fill-opacity:1;fill-rule: evenodd"/>
<path id="Sketch007022024007008105133_w0014"  d="M 131.27106675787292 -3.421120564917016 A 0.5 0.5 0 0 1 131.677 -2.84189L 129.41922023587549 9.960608189581245 A 0.5 0.5 0 0 1 128.84 10.3662L 116.03749148137723 8.10876166758379 A 0.5 0.5 0 0 1 115.632 7.52953L 117.88933800337469 -5.272967086914472 A 0.5 0.5 0 0 1 118.469 -5.67855L 131.27106675787292 -3.421120564917016 " stroke="#000000" stroke-width="0.35 px" style="stroke-width:0.35;stroke-miterlimit:4;stroke-dasharray:none;fill:none;fill-opacity:1;fill-rule: evenodd"/>
<path id="Sketch007022024007008105133_w0015"  d="M 150.52785412043877 -2.9272109345943575 A 0.5 0.5 0 0 1 150.933 -2.34798L 148.67600759844132 10.454517819903907 A 0.5 0.5 0 0 1 148.097 10.8601L 135.29427884394303 8.602671297906445 A 0.5 0.5 0 0 1 134.889 8.02344L 137.1461253659405 -4.779057456591831 A 0.5 0.5 0 0 1 137.725 -5.18464L 150.52785412043877 -2.9272109345943575 " stroke="#000000" stroke-width="0.35 px" style="stroke-width:0.35;stroke-miterlimit:4;stroke-dasharray:none;fill:none;fill-opacity:1;fill-rule: evenodd"/>
<path id="Sketch007022024007008105133_w0016"  d="M 95.07309048192985 -17.541351211980096 A 0.5 0.5 0 0 1 95.4787 -16.9621L 93.22124395993238 -4.159622457481814 A 0.5 0.5 0 0 1 92.642 -3.75404L 79.8395152054341 -6.011468979479285 A 0.5 0.5 0 0 1 79.4339 -6.5907L 81.69136172743157 -19.39319773397756 A 0.5 0.5 0 0 1 82.2706 -19.7988L 95.07309048192985 -17.541351211980096 " stroke="#000000" stroke-width="0.35 px" style="stroke-width:0.35;stroke-miterlimit:4;stroke-dasharray:none;fill:none;fill-opacity:1;fill-rule: evenodd"/>
<path id="Sketch007022024007008105133_w0017"  d="M 76.64330256550278 -22.72540776602338 A 0.5 0.5 0 0 1 77.0489 -22.1462L 74.79145604350529 -9.34367901152511 A 0.5 0.5 0 0 1 74.2122 -8.9381L 61.40972728900704 -11.195525533522572 A 0.5 0.5 0 0 1 61.0041 -11.7748L 63.261573811004496 -24.577254288020846 A 0.5 0.5 0 0 1 63.8408 -24.9828L 76.64330256550278 -22.72540776602338 " stroke="#000000" stroke-width="0.35 px" style="stroke-width:0.35;stroke-miterlimit:4;stroke-dasharray:none;fill:none;fill-opacity:1;fill-rule: evenodd"/>
<path id="Sketch007022024007008105133_w0018"  d="M 58.31275458261237 -28.472281950913146 A 0.5 0.5 0 0 1 58.7183 -27.8931L 56.460908060614905 -15.090553196414877 A 0.5 0.5 0 0 1 55.8817 -14.685L 43.07917930611665 -16.942399718412332 A 0.5 0.5 0 0 1 42.6736 -17.5216L 44.931025828114116 -30.32412847291061 A 0.5 0.5 0 0 1 45.5103 -30.7297L 58.31275458261237 -28.472281950913146 " stroke="#000000" stroke-width="0.35 px" style="stroke-width:0.35;stroke-miterlimit:4;stroke-dasharray:none;fill:none;fill-opacity:1;fill-rule: evenodd"/>
<path id="Sketch007022024007008105133_w0019"  d="M 114.66067762295117 -18.92350035114571 A 0.5 0.5 0 0 1 115.066 -18.3443L 112.80883110095368 -5.541771596647434 A 0.5 0.5 0 0 1 112.23 -5.13619L 99.42710234645541 -7.393618118644894 A 0.5 0.5 0 0 1 99.0215 -7.97285L 101.27894886845289 -20.77534687314317 A 0.5 0.5 0 0 1 101.858 -21.1809L 114.66067762295117 -18.92350035114571 " stroke="#000000" stroke-width="0.35 px" style="stroke-width:0.35;stroke-miterlimit:4;stroke-dasharray:none;fill:none;fill-opacity:1;fill-rule: evenodd"/>
<path id="Sketch007022024007008105133_w0020"  d="M 171.60404026450985 -12.751624536457138 A 0.5 0.5 0 0 1 172.01 -12.1724L 169.7521937425124 0.6301042180411384 A 0.5 0.5 0 0 1 169.173 1.03568L 156.3704649880141 -1.2217423039563209 A 0.5 0.5 0 0 1 155.965 -1.80097L 158.22231151001156 -14.603471058454591 A 0.5 0.5 0 0 1 158.802 -15.0091L 171.60404026450985 -12.751624536457138 " stroke="#000000" stroke-width="0.35 px" style="stroke-width:0.35;stroke-miterlimit:4;stroke-dasharray:none;fill:none;fill-opacity:1;fill-rule: evenodd"/>
<path id="Sketch007022024007008105133_w0021"  d="M 134.57906454242794 -22.181708259799578 A 0.5 0.5 0 0 1 134.985 -21.6025L 132.7272180204305 -8.799979505301303 A 0.5 0.5 0 0 1 132.148 -8.3944L 119.34548926593226 -10.651826027298759 A 0.5 0.5 0 0 1 118.94 -11.2311L 121.19733578792972 -24.03355478179704 A 0.5 0.5 0 0 1 121.777 -24.4391L 134.57906454242794 -22.181708259799578 " stroke="#000000" stroke-width="0.35 px" style="stroke-width:0.35;stroke-miterlimit:4;stroke-dasharray:none;fill:none;fill-opacity:1;fill-rule: evenodd"/>
<path id="Sketch007022024007008105133_w0022"  d="M 153.8358519049938 -21.687798629476916 A 0.5 0.5 0 0 1 154.241 -21.1086L 151.98400538299634 -8.306069874978652 A 0.5 0.5 0 0 1 151.405 -7.90049L 138.60227662849806 -10.157916396976125 A 0.5 0.5 0 0 1 138.197 -10.7371L 140.45412315049552 -23.539645151474396 A 0.5 0.5 0 0 1 141.033 -23.9452L 153.8358519049938 -21.687798629476916 " stroke="#000000" stroke-width="0.35 px" style="stroke-width:0.35;stroke-miterlimit:4;stroke-dasharray:none;fill:none;fill-opacity:1;fill-rule: evenodd"/>
<path id="Sketch007022024007008105133_w0023"  d="M 89.5300740645724 -40.95763183032138 A 0.5 0.5 0 0 1 89.9357 -40.3784L 87.67822754257493 -27.575903075823106 A 0.5 0.5 0 0 1 87.099 -27.1703L 74.29649878807666 -29.427749597820572 A 0.5 0.5 0 0 1 73.8909 -30.007L 76.1483453100741 -42.80947835231885 A 0.5 0.5 0 0 1 76.7276 -43.2151L 89.5300740645724 -40.95763183032138 " stroke="#000000" stroke-width="0.35 px" style="stroke-width:0.35;stroke-miterlimit:4;stroke-dasharray:none;fill:none;fill-opacity:1;fill-rule: evenodd"/>
<path id="Sketch007022024007008105133_w0024"  d="M 57.90788814614228 -50.64479741536056 A 0.5 0.5 0 0 1 58.5724 -50.8866L 70.35435231072324 -45.39260509062473 A 0.5 0.5 0 0 1 70.5962 -44.7281L 65.10216020332389 -32.94614047862516 A 0.5 0.5 0 0 1 64.4377 -32.7043L 52.655695704591324 -38.19833329582873 A 0.5 0.5 0 0 1 52.4139 -38.8628L 57.90788814614228 -50.64479741536056 " stroke="#000000" stroke-width="0.35 px" style="stroke-width:0.35;stroke-miterlimit:4;stroke-dasharray:none;fill:none;fill-opacity:1;fill-rule: evenodd"/>
<path id="Sketch007022024007008105133_w0025"  d="M 39.23479615600198 -59.53180358935336 A 0.5 0.5 0 0 1 39.9392 -59.5934L 49.89778969753962 -51.237193123417285 A 0.5 0.5 0 0 1 49.9594 -50.5328L 41.60317923160356 -40.57419958187965 A 0.5 0.5 0 0 1 40.8988 -40.5126L 30.94018569006593 -48.86881004781573 A 0.5 0.5 0 0 1 30.8786 -49.5732L 39.23479615600198 -59.53180358935336 " stroke="#000000" stroke-width="0.35 px" style="stroke-width:0.35;stroke-miterlimit:4;stroke-dasharray:none;fill:none;fill-opacity:1;fill-rule: evenodd"/>
<path id="Sketch007022024007008105133_w0026"  d="M -88.9241115842446 20.55905214312475 A 0.5 0.5 0 0 1 -88.5185 19.9798L -75.71603100741324 17.72239786811509 A 0.5 0.5 0 0 1 -75.1368 18.128L -72.87937673240359 30.93047844494643 A 0.5 0.5 0 0 1 -73.285 31.5097L -86.08745730923494 33.767132719956095 A 0.5 0.5 0 0 1 -86.6667 33.3616L -88.9241115842446 20.55905214312475 " stroke="#000000" stroke-width="0.35 px" style="stroke-width:0.35;stroke-miterlimit:4;stroke-dasharray:none;fill:none;fill-opacity:1;fill-rule: evenodd"/>
<path id="Sketch007022024007008105133_w0027"  d="M -70.49432366781753 15.374995589081466 A 0.5 0.5 0 0 1 -70.0887 14.7958L -57.28624309098617 12.53834131407181 A 0.5 0.5 0 0 1 -56.707 12.9439L -54.44958881597651 25.746421890903157 A 0.5 0.5 0 0 1 -54.8552 26.3256L -67.65766939280786 28.58307616591281 A 0.5 0.5 0 0 1 -68.2369 28.1775L -70.49432366781753 15.374995589081466 " stroke="#000000" stroke-width="0.35 px" style="stroke-width:0.35;stroke-miterlimit:4;stroke-dasharray:none;fill:none;fill-opacity:1;fill-rule: evenodd"/>
<path id="Sketch007022024007008105133_w0028"  d="M -52.1637756849271 9.628121404191718 A 0.5 0.5 0 0 1 -51.7582 9.04889L -38.95569510809578 6.791467129182061 A 0.5 0.5 0 0 1 -38.3765 7.19705L -36.11904083308612 19.99954770601341 A 0.5 0.5 0 0 1 -36.5246 20.5788L -49.327121409917446 22.836201981023063 A 0.5 0.5 0 0 1 -49.9063 22.4306L -52.1637756849271 9.628121404191718 " stroke="#000000" stroke-width="0.35 px" style="stroke-width:0.35;stroke-miterlimit:4;stroke-dasharray:none;fill:none;fill-opacity:1;fill-rule: evenodd"/>
<path id="Sketch007022024007008105133_w0029"  d="M -108.5116987252659 19.176903003959122 A 0.5 0.5 0 0 1 -108.106 18.5977L -95.30361814843455 16.340248728949458 A 0.5 0.5 0 0 1 -94.7244 16.7458L -92.4669638734249 29.548329305780804 A 0.5 0.5 0 0 1 -92.8725 30.1276L -105.67504445025625 32.38498358079046 A 0.5 0.5 0 0 1 -106.254 31.9794L -108.5116987252659 19.176903003959122 " stroke="#000000" stroke-width="0.35 px" style="stroke-width:0.35;stroke-miterlimit:4;stroke-dasharray:none;fill:none;fill-opacity:1;fill-rule: evenodd"/>
<path id="Sketch007022024007008105133_w0030"  d="M -128.43008564474272 15.918695095305234 A 0.5 0.5 0 0 1 -128.025 15.3395L -115.22200506791138 13.082040820295584 A 0.5 0.5 0 0 1 -114.643 13.4876L -112.38535079290173 26.290121397126924 A 0.5 0.5 0 0 1 -112.791 26.8693L -125.59343136973307 29.126775672136585 A 0.5 0.5 0 0 1 -126.173 28.7212L -128.43008564474272 15.918695095305234 " stroke="#000000" stroke-width="0.35 px" style="stroke-width:0.35;stroke-miterlimit:4;stroke-dasharray:none;fill:none;fill-opacity:1;fill-rule: evenodd"/>
<path id="Sketch007022024007008105133_w0031"  d="M -147.68687300730855 16.412604725627876 A 0.5 0.5 0 0 1 -147.281 15.8334L -134.47879243047714 13.57595045061821 A 0.5 0.5 0 0 1 -133.9 13.9815L -131.6421381554675 26.784031027449558 A 0.5 0.5 0 0 1 -132.048 27.3633L -144.8502187322989 29.62068530245922 A 0.5 0.5 0 0 1 -145.429 29.2151L -147.68687300730855 16.412604725627876 " stroke="#000000" stroke-width="0.35 px" style="stroke-width:0.35;stroke-miterlimit:4;stroke-dasharray:none;fill:none;fill-opacity:1;fill-rule: evenodd"/>
<path id="Sketch007022024007008105133_w0032"  d="M -92.23210936879961 1.7984644482421768 A 0.5 0.5 0 0 1 -91.8265 1.21924L -79.02402879196826 -1.0381898267674834 A 0.5 0.5 0 0 1 -78.4448 -0.63261L -76.1873745169586 12.16989075006387 A 0.5 0.5 0 0 1 -76.593 12.7491L -89.39545509378995 15.006545025073526 A 0.5 0.5 0 0 1 -89.9747 14.601L -92.23210936879961 1.7984644482421768 " stroke="#000000" stroke-width="0.35 px" style="stroke-width:0.35;stroke-miterlimit:4;stroke-dasharray:none;fill:none;fill-opacity:1;fill-rule: evenodd"/>
<path id="Sketch007022024007008105133_w0033"  d="M -73.80232145237254 -3.385592105801094 A 0.5 0.5 0 0 1 -73.3967 -3.96482L -60.59424087554119 -6.22224638081075 A 0.5 0.5 0 0 1 -60.015 -5.81667L -57.757586600531525 6.985834196020589 A 0.5 0.5 0 0 1 -58.1632 7.56506L -70.96566717736287 9.822488471030253 A 0.5 0.5 0 0 1 -71.5449 9.41691L -73.80232145237254 -3.385592105801094 " stroke="#000000" stroke-width="0.35 px" style="stroke-width:0.35;stroke-miterlimit:4;stroke-dasharray:none;fill:none;fill-opacity:1;fill-rule: evenodd"/>
<path id="Sketch007022024007008105133_w0034"  d="M -55.47177346948212 -9.13246629069084 A 0.5 0.5 0 0 1 -55.0662 -9.71169L -42.263692892650795 -11.969120565700498 A 0.5 0.5 0 0 1 -41.6845 -11.5635L -39.42703861764113 1.2389600111308479 A 0.5 0.5 0 0 1 -39.8326 1.81819L -52.635119194472466 4.075614286140505 A 0.5 0.5 0 0 1 -53.2143 3.67003L -55.47177346948212 -9.13246629069084 " stroke="#000000" stroke-width="0.35 px" style="stroke-width:0.35;stroke-miterlimit:4;stroke-dasharray:none;fill:none;fill-opacity:1;fill-rule: evenodd"/>
<path id="Sketch007022024007008105133_w0035"  d="M -111.81969650982093 0.4163153090765537 A 0.5 0.5 0 0 1 -111.414 -0.162913L -98.61161593298958 -2.420338965933103 A 0.5 0.5 0 0 1 -98.0324 -2.01476L -95.77496165797992 10.787741610898243 A 0.5 0.5 0 0 1 -96.1805 11.367L -108.98304223481126 13.6243958859079 A 0.5 0.5 0 0 1 -109.562 13.2188L -111.81969650982093 0.4163153090765537 " stroke="#000000" stroke-width="0.35 px" style="stroke-width:0.35;stroke-miterlimit:4;stroke-dasharray:none;fill:none;fill-opacity:1;fill-rule: evenodd"/>
<path id="Sketch007022024007008105133_w0036"  d="M -168.7630591513796 6.588191123765088 A 0.5 0.5 0 0 1 -168.357 6.00896L -155.55497857454824 3.7515368487554306 A 0.5 0.5 0 0 1 -154.976 4.15712L -152.7183242995386 16.95961742558677 A 0.5 0.5 0 0 1 -153.124 17.5388L -165.92640487636996 19.79627170059643 A 0.5 0.5 0 0 1 -166.506 19.3907L -168.7630591513796 6.588191123765088 " stroke="#000000" stroke-width="0.35 px" style="stroke-width:0.35;stroke-miterlimit:4;stroke-dasharray:none;fill:none;fill-opacity:1;fill-rule: evenodd"/>
<path id="Sketch007022024007008105133_w0037"  d="M -131.73808342929772 -2.8418925995773305 A 0.5 0.5 0 0 1 -131.333 -3.42112L -118.53000285246641 -5.678546874586987 A 0.5 0.5 0 0 1 -117.951 -5.27297L -115.69334857745675 7.529533702244363 A 0.5 0.5 0 0 1 -116.099 8.10876L -128.90142915428808 10.366187977254013 A 0.5 0.5 0 0 1 -129.481 9.96061L -131.73808342929772 -2.8418925995773305 " stroke="#000000" stroke-width="0.35 px" style="stroke-width:0.35;stroke-miterlimit:4;stroke-dasharray:none;fill:none;fill-opacity:1;fill-rule: evenodd"/>
<path id="Sketch007022024007008105133_w0038"  d="M -150.99487079186358 -2.347982969254689 A 0.5 0.5 0 0 1 -150.589 -2.92721L -137.78679021503217 -5.184637244264353 A 0.5 0.5 0 0 1 -137.208 -4.77906L -134.95013594002253 8.02344333256699 A 0.5 0.5 0 0 1 -135.356 8.60267L -148.15821651685394 10.860097607576654 A 0.5 0.5 0 0 1 -148.737 10.4545L -150.99487079186358 -2.347982969254689 " stroke="#000000" stroke-width="0.35 px" style="stroke-width:0.35;stroke-miterlimit:4;stroke-dasharray:none;fill:none;fill-opacity:1;fill-rule: evenodd"/>
<path id="Sketch007022024007008105133_w0039"  d="M -95.54010715335463 -16.962123246640385 A 0.5 0.5 0 0 1 -95.1345 -17.5414L -82.33202657652328 -19.79877752165004 A 0.5 0.5 0 0 1 -81.7528 -19.3932L -79.49537230151361 -6.590696944818697 A 0.5 0.5 0 0 1 -79.901 -6.01147L -92.70345287834496 -3.7540426698090408 A 0.5 0.5 0 0 1 -93.2827 -4.15962L -95.54010715335463 -16.962123246640385 " stroke="#000000" stroke-width="0.35 px" style="stroke-width:0.35;stroke-miterlimit:4;stroke-dasharray:none;fill:none;fill-opacity:1;fill-rule: evenodd"/>
<path id="Sketch007022024007008105133_w0040"  d="M -77.11031923692755 -22.14617980068366 A 0.5 0.5 0 0 1 -76.7047 -22.7254L -63.9022386600962 -24.98283407569332 A 0.5 0.5 0 0 1 -63.323 -24.5773L -61.065584385086545 -11.774753498861978 A 0.5 0.5 0 0 1 -61.4712 -11.1955L -74.27366496191789 -8.938099223852317 A 0.5 0.5 0 0 1 -74.8529 -9.34368L -77.11031923692755 -22.14617980068366 " stroke="#000000" stroke-width="0.35 px" style="stroke-width:0.35;stroke-miterlimit:4;stroke-dasharray:none;fill:none;fill-opacity:1;fill-rule: evenodd"/>
<path id="Sketch007022024007008105133_w0041"  d="M -58.779771254037136 -27.89305398557341 A 0.5 0.5 0 0 1 -58.3742 -28.4723L -45.57169067720581 -30.729708260583067 A 0.5 0.5 0 0 1 -44.9925 -30.3241L -42.73503640219615 -17.52162768375172 A 0.5 0.5 0 0 1 -43.1406 -16.9424L -55.94311697902748 -14.684973408742065 A 0.5 0.5 0 0 1 -56.5223 -15.0906L -58.779771254037136 -27.89305398557341 " stroke="#000000" stroke-width="0.35 px" style="stroke-width:0.35;stroke-miterlimit:4;stroke-dasharray:none;fill:none;fill-opacity:1;fill-rule: evenodd"/>
<path id="Sketch007022024007008105133_w0042"  d="M -115.12769429437594 -18.344272385806015 A 0.5 0.5 0 0 1 -114.722 -18.9235L -101.91961371754459 -21.180926660815672 A 0.5 0.5 0 0 1 -101.34 -20.7753L -99.08295944253493 -7.972846083984328 A 0.5 0.5 0 0 1 -99.4885 -7.39362L -112.29104001936628 -5.1361918089746705 A 0.5 0.5 0 0 1 -112.87 -5.54177L -115.12769429437594 -18.344272385806015 " stroke="#000000" stroke-width="0.35 px" style="stroke-width:0.35;stroke-miterlimit:4;stroke-dasharray:none;fill:none;fill-opacity:1;fill-rule: evenodd"/>
<path id="Sketch007022024007008105133_w0043"  d="M -172.07105693593462 -12.172396571117474 A 0.5 0.5 0 0 1 -171.665 -12.7516L -158.86297635910327 -15.009050846127133 A 0.5 0.5 0 0 1 -158.284 -14.6035L -156.02632208409364 -1.800970269295787 A 0.5 0.5 0 0 1 -156.432 -1.22174L -169.23440266092499 1.0356840057138732 A 0.5 0.5 0 0 1 -169.814 0.630104L -172.07105693593462 -12.172396571117474 " stroke="#000000" stroke-width="0.35 px" style="stroke-width:0.35;stroke-miterlimit:4;stroke-dasharray:none;fill:none;fill-opacity:1;fill-rule: evenodd"/>
<path id="Sketch007022024007008105133_w0044"  d="M -135.04608121385274 -21.602480294459898 A 0.5 0.5 0 0 1 -134.641 -22.1817L -121.83800063702142 -24.439134569469555 A 0.5 0.5 0 0 1 -121.259 -24.0336L -119.00134636201176 -11.231053992638204 A 0.5 0.5 0 0 1 -119.407 -10.6518L -132.2094269388431 -8.394399717628547 A 0.5 0.5 0 0 1 -132.789 -8.79998L -135.04608121385274 -21.602480294459898 " stroke="#000000" stroke-width="0.35 px" style="stroke-width:0.35;stroke-miterlimit:4;stroke-dasharray:none;fill:none;fill-opacity:1;fill-rule: evenodd"/>
<path id="Sketch007022024007008105133_w0045"  d="M -154.3028685764186 -21.10857066413725 A 0.5 0.5 0 0 1 -153.897 -21.6878L -141.0947879995872 -23.945224939146915 A 0.5 0.5 0 0 1 -140.516 -23.5396L -138.25813372457753 -10.737144362315577 A 0.5 0.5 0 0 1 -138.664 -10.1579L -151.46621430140894 -7.900490087305913 A 0.5 0.5 0 0 1 -152.045 -8.30607L -154.3028685764186 -21.10857066413725 " stroke="#000000" stroke-width="0.35 px" style="stroke-width:0.35;stroke-miterlimit:4;stroke-dasharray:none;fill:none;fill-opacity:1;fill-rule: evenodd"/>
<path id="Sketch007022024007008105133_w0046"  d="M -89.99709073599715 -40.378403864981664 A 0.5 0.5 0 0 1 -89.5915 -40.9576L -76.78901015916581 -43.21505813999133 A 0.5 0.5 0 0 1 -76.2098 -42.8095L -73.95235588415616 -30.00697756315998 A 0.5 0.5 0 0 1 -74.3579 -29.4277L -87.1604364609875 -27.170323288150325 A 0.5 0.5 0 0 1 -87.7397 -27.5759L -89.99709073599715 -40.378403864981664 " stroke="#000000" stroke-width="0.35 px" style="stroke-width:0.35;stroke-miterlimit:4;stroke-dasharray:none;fill:none;fill-opacity:1;fill-rule: evenodd"/>
<path id="Sketch007022024007008105133_w0047"  d="M -70.65763395712332 -44.728142066235904 A 0.5 0.5 0 0 1 -70.4158 -45.3926L -58.63378859167221 -50.886641787023684 A 0.5 0.5 0 0 1 -57.9693 -50.6448L -52.47528788607665 -38.86279659522074 A 0.5 0.5 0 0 1 -52.7171 -38.1983L -64.49913406268736 -32.70429571597702 A 0.5 0.5 0 0 1 -65.1636 -32.9461L -70.65763395712332 -44.728142066235904 " stroke="#000000" stroke-width="0.35 px" style="stroke-width:0.35;stroke-miterlimit:4;stroke-dasharray:none;fill:none;fill-opacity:1;fill-rule: evenodd"/>
<path id="Sketch007022024007008105133_w0048"  d="M -50.02085499800795 -50.53277709701436 A 0.5 0.5 0 0 1 -49.9592 -51.2372L -40.00064906615685 -59.593432006069406 A 0.5 0.5 0 0 1 -39.2962 -59.5318L -30.93999415710182 -49.57322607421828 A 0.5 0.5 0 0 1 -31.0016 -48.8688L -40.960200088952924 -40.512571165163244 A 0.5 0.5 0 0 1 -41.6646 -40.5742L -50.02085499800795 -50.53277709701436 " stroke="#000000" stroke-width="0.35 px" style="stroke-width:0.35;stroke-miterlimit:4;stroke-dasharray:none;fill:none;fill-opacity:1;fill-rule: evenodd"/>
<circle cx="26.977728470169627" cy="-55.02720192321733" r="1.0" stroke="#000000" stroke-width="0.35 px" style="stroke-width:0.35;stroke-miterlimit:4;stroke-dasharray:none;fill:none"/>
<circle cx="175.62815839964924" cy="4.737860825738128" r="1.0" stroke="#000000" stroke-width="0.35 px" style="stroke-width:0.35;stroke-miterlimit:4;stroke-dasharray:none;fill:none"/>
<circle cx="-171.69134599262037" cy="27.41305933884429" r="1.0" stroke="#000000" stroke-width="0.35 px" style="stroke-width:0.35;stroke-miterlimit:4;stroke-dasharray:none;fill:none"/>
<circle cx="-150.6151598485493" cy="37.23747294070708" r="1.0" stroke="#000000" stroke-width="0.35 px" style="stroke-width:0.35;stroke-miterlimit:4;stroke-dasharray:none;fill:none"/>
<circle cx="-175.68959528340145" cy="4.737860825738206" r="1.0" stroke="#000000" stroke-width="0.35 px" style="stroke-width:0.35;stroke-miterlimit:4;stroke-dasharray:none;fill:none"/>
<circle cx="-179.6878445741825" cy="-17.937337687367876" r="1.0" stroke="#000000" stroke-width="0.35 px" style="stroke-width:0.35;stroke-miterlimit:4;stroke-dasharray:none;fill:none"/>
<circle cx="-161.91965621466645" cy="-26.873511780387663" r="1.0" stroke="#000000" stroke-width="0.35 px" style="stroke-width:0.35;stroke-miterlimit:4;stroke-dasharray:none;fill:none"/>
<circle cx="-135.32984688333678" cy="-31.56201257739478" r="1.0" stroke="#000000" stroke-width="0.35 px" style="stroke-width:0.35;stroke-miterlimit:4;stroke-dasharray:none;fill:none"/>
<circle cx="-94.40620631621849" cy="-46.70894411032679" r="1.0" stroke="#000000" stroke-width="0.35 px" style="stroke-width:0.35;stroke-miterlimit:4;stroke-dasharray:none;fill:none"/>
<circle cx="-120.69525071453829" cy="-31.240905190263177" r="1.0" stroke="#000000" stroke-width="0.35 px" style="stroke-width:0.35;stroke-miterlimit:4;stroke-dasharray:none;fill:none"/>
<circle cx="-41.89310099275748" cy="-72.73118742876774" r="1.0" stroke="#000000" stroke-width="0.35 px" style="stroke-width:0.35;stroke-miterlimit:4;stroke-dasharray:none;fill:none"/>
<circle cx="-12.185229715086036" cy="-37.323216417666565" r="1.0" stroke="#000000" stroke-width="0.35 px" style="stroke-width:0.35;stroke-miterlimit:4;stroke-dasharray:none;fill:none"/>
<circle cx="-68.16562414952868" cy="-53.612485242354225" r="1.0" stroke="#000000" stroke-width="0.35 px" style="stroke-width:0.35;stroke-miterlimit:4;stroke-dasharray:none;fill:none"/>
<circle cx="-27.03916535392176" cy="-55.02720192321716" r="1.0" stroke="#000000" stroke-width="0.35 px" style="stroke-width:0.35;stroke-miterlimit:4;stroke-dasharray:none;fill:none"/>
<circle cx="-131.35837248598347" cy="36.743563310384445" r="1.0" stroke="#000000" stroke-width="0.35 px" style="stroke-width:0.35;stroke-miterlimit:4;stroke-dasharray:none;fill:none"/>
<circle cx="-111.43998556650665" cy="40.00177121903833" r="1.0" stroke="#000000" stroke-width="0.35 px" style="stroke-width:0.35;stroke-miterlimit:4;stroke-dasharray:none;fill:none"/>
<circle cx="-91.85239842548535" cy="41.38392035820395" r="1.0" stroke="#000000" stroke-width="0.35 px" style="stroke-width:0.35;stroke-miterlimit:4;stroke-dasharray:none;fill:none"/>
<circle cx="-65.26258909415573" cy="36.69541956119684" r="1.0" stroke="#000000" stroke-width="0.35 px" style="stroke-width:0.35;stroke-miterlimit:4;stroke-dasharray:none;fill:none"/>
<circle cx="-46.832801177728655" cy="31.51136300715356" r="1.0" stroke="#000000" stroke-width="0.35 px" style="stroke-width:0.35;stroke-miterlimit:4;stroke-dasharray:none;fill:none"/>
<circle cx="-31.775948941814146" cy="26.341729709086227" r="1.0" stroke="#000000" stroke-width="0.35 px" style="stroke-width:0.35;stroke-miterlimit:4;stroke-dasharray:none;fill:none"/>
<circle cx="-13.014358205517063" cy="16.445317426120848" r="1.0" stroke="#000000" stroke-width="0.35 px" style="stroke-width:0.35;stroke-miterlimit:4;stroke-dasharray:none;fill:none"/>
<circle cx="12.123792831333887" cy="-37.32321641766674" r="1.0" stroke="#000000" stroke-width="0.35 px" style="stroke-width:0.35;stroke-miterlimit:4;stroke-dasharray:none;fill:none"/>
<circle cx="12.952921321764912" cy="16.44531742612067" r="1.0" stroke="#000000" stroke-width="0.35 px" style="stroke-width:0.35;stroke-miterlimit:4;stroke-dasharray:none;fill:none"/>
<circle cx="41.831664109005374" cy="-72.73118742876792" r="1.0" stroke="#000000" stroke-width="0.35 px" style="stroke-width:0.35;stroke-miterlimit:4;stroke-dasharray:none;fill:none"/>
<circle cx="31.714512058061985" cy="26.34172970908605" r="1.0" stroke="#000000" stroke-width="0.35 px" style="stroke-width:0.35;stroke-miterlimit:4;stroke-dasharray:none;fill:none"/>
<circle cx="46.77136429397651" cy="31.51136300715341" r="1.0" stroke="#000000" stroke-width="0.35 px" style="stroke-width:0.35;stroke-miterlimit:4;stroke-dasharray:none;fill:none"/>
<circle cx="65.20115221040355" cy="36.69541956119667" r="1.0" stroke="#000000" stroke-width="0.35 px" style="stroke-width:0.35;stroke-miterlimit:4;stroke-dasharray:none;fill:none"/>
<circle cx="68.10418726577659" cy="-53.61248524235438" r="1.0" stroke="#000000" stroke-width="0.35 px" style="stroke-width:0.35;stroke-miterlimit:4;stroke-dasharray:none;fill:none"/>
<circle cx="94.34476943246639" cy="-46.70894411032694" r="1.0" stroke="#000000" stroke-width="0.35 px" style="stroke-width:0.35;stroke-miterlimit:4;stroke-dasharray:none;fill:none"/>
<circle cx="120.63381383078615" cy="-31.240905190263312" r="1.0" stroke="#000000" stroke-width="0.35 px" style="stroke-width:0.35;stroke-miterlimit:4;stroke-dasharray:none;fill:none"/>
<circle cx="135.2684099995847" cy="-31.56201257739489" r="1.0" stroke="#000000" stroke-width="0.35 px" style="stroke-width:0.35;stroke-miterlimit:4;stroke-dasharray:none;fill:none"/>
<circle cx="161.85821933091432" cy="-26.87351178038776" r="1.0" stroke="#000000" stroke-width="0.35 px" style="stroke-width:0.35;stroke-miterlimit:4;stroke-dasharray:none;fill:none"/>
<circle cx="91.79096154173315" cy="41.383920358203795" r="1.0" stroke="#000000" stroke-width="0.35 px" style="stroke-width:0.35;stroke-miterlimit:4;stroke-dasharray:none;fill:none"/>
<circle cx="111.37854868275447" cy="40.00177121903822" r="1.0" stroke="#000000" stroke-width="0.35 px" style="stroke-width:0.35;stroke-miterlimit:4;stroke-dasharray:none;fill:none"/>
<circle cx="131.2969356022313" cy="36.743563310384346" r="1.0" stroke="#000000" stroke-width="0.35 px" style="stroke-width:0.35;stroke-miterlimit:4;stroke-dasharray:none;fill:none"/>
<circle cx="150.55372296479712" cy="37.23747294070698" r="1.0" stroke="#000000" stroke-width="0.35 px" style="stroke-width:0.35;stroke-miterlimit:4;stroke-dasharray:none;fill:none"/>
<circle cx="171.6299091088682" cy="27.413059338844203" r="1.0" stroke="#000000" stroke-width="0.35 px" style="stroke-width:0.35;stroke-miterlimit:4;stroke-dasharray:none;fill:none"/>
<title>b'sketch'</title>
</g>
</svg>